<?xml version="1.0" standalone="no"?>
<!DOCTYPE svg PUBLIC "-//W3C//DTD SVG 20010904//EN"
 "http://www.w3.org/TR/2001/REC-SVG-20010904/DTD/svg10.dtd">
<svg version="1.0" xmlns="http://www.w3.org/2000/svg"
 width="16.000000pt" height="16.000000pt" viewBox="0 0 16.000000 16.000000"
 preserveAspectRatio="xMidYMid meet">

<g transform="translate(0.000000,16.000000) scale(0.100000,-0.100000)"
fill="#000000" stroke="none">
<path d="M39 119 c-16 -16 -19 -27 -13 -52 8 -41 9 -42 54 -42 45 0 46 1 54
42 6 25 3 36 -13 52 -12 12 -30 21 -41 21 -11 0 -29 -9 -41 -21z m67 -32 c24
-14 15 -22 -26 -23 -34 -1 -40 2 -40 19 0 20 0 20 14 1 14 -18 15 -18 22 11 5
18 9 24 12 15 3 -8 11 -19 18 -23z"/>
</g>
</svg>
